<svg width="242" height="54" viewBox="0 0 242 54" fill="none" xmlns="http://www.w3.org/2000/svg">
<mask id="path-1-outside-1_76_438" maskUnits="userSpaceOnUse" x="-2" y="-1" width="245" height="57" fill="black">
<rect fill="white" x="-2" y="-1" width="245" height="57"/>
<path d="M16.8068 0.199997V0.263996H20.5188C22.5028 0.263996 24.1028 1.8 24.1028 3.784V41.48C24.1028 43.464 22.5028 45 20.5188 45H0.74275L2.02275 42.824C2.40675 42.312 2.53475 41.672 2.53475 41.032V4.232C2.53475 3.592 2.40675 2.952 2.02275 2.44L0.74275 0.199997H16.8068ZM15.1428 37.704C16.0388 37.704 16.8068 37 16.8068 36.04V9.224C16.8068 8.264 16.0388 7.56 15.1428 7.56H9.83075V37.704H15.1428ZM181.055 0.199997H204.415V9.352L202.303 8.072C201.727 7.752 201.023 7.56 200.255 7.56H190.143V16.264H196.607C197.375 16.264 198.079 16.072 198.655 15.688L200.767 14.472V25.352L198.655 24.136C198.079 23.752 197.375 23.56 196.607 23.56H190.143V40.904C190.143 41.608 190.335 42.312 190.719 42.952L191.935 45.064H181.055L182.271 42.952C182.655 42.312 182.847 41.608 182.847 40.904V4.36C182.847 3.656 182.655 2.952 182.271 2.312L181.055 0.199997Z"/>
<path d="M49.6028 0.199997V0.263996H51.3948L50.1148 2.376C49.7948 2.952 49.6028 3.656 49.6028 4.36V41.416C49.6028 43.4 48.0028 45 46.0188 45H31.6828C29.6348 45 28.0348 43.4 28.0348 41.416V4.36C28.0348 3.656 27.8428 2.952 27.5228 2.376L26.2428 0.263996H37.1228L35.9068 2.376C35.5228 2.952 35.3308 3.656 35.3308 4.36V36.04C35.3308 37 36.0988 37.704 37.0588 37.704H40.6428C41.5388 37.704 42.3068 37 42.3068 36.04V4.36C42.3068 3.656 42.1147 2.952 41.7308 2.376L40.5148 0.199997H49.6028ZM76.9153 4.232V41.032C76.9153 41.672 77.1073 42.248 77.4273 42.824L78.7073 45H67.8273L68.0833 44.552C68.5953 43.72 68.7233 42.696 68.4033 41.736L62.6433 23.24V41.032C62.6433 41.672 62.8353 42.248 63.1553 42.824L64.4353 45.064H53.5553L54.8993 42.824C55.2193 42.248 55.3473 41.672 55.3473 41.032V4.232C55.3473 3.592 55.2193 3.016 54.8993 2.44L53.5553 0.263996H64.4353L64.1793 0.775997C63.6673 1.608 63.5393 2.632 63.7953 3.592L69.6193 22.152V4.232C69.6193 3.592 69.4272 3.016 69.1073 2.44L67.8273 0.199997H78.7073L77.4273 2.44C77.1073 3.016 76.9153 3.592 76.9153 4.232ZM100.516 16.392L95.1398 19.464V7.56H88.1638V37.704H95.1398V33.864V29.576L90.7878 27.016L102.436 20.296V53.576L95.1398 49.416V45.064H84.4518C82.4678 45.064 80.8678 43.464 80.8678 41.48V3.784C80.8678 1.8 82.4678 0.199997 84.4518 0.199997H98.8518C100.836 0.199997 102.436 1.8 102.436 3.784V13.064C102.436 14.408 101.732 15.688 100.516 16.392ZM104.555 0.199997H127.915V9.352L125.675 8.008C125.163 7.688 124.523 7.56 123.947 7.56H113.643V16.264H120.299C120.875 16.264 121.515 16.072 122.027 15.752L124.267 14.472V25.352L122.027 24.072C121.515 23.752 120.875 23.56 120.299 23.56H113.643V37.704H123.947C124.523 37.704 125.163 37.576 125.675 37.256L127.915 35.912V45H104.555L105.899 42.824C106.219 42.248 106.347 41.672 106.347 41.032V4.232C106.347 3.592 106.219 3.016 105.899 2.44L104.555 0.199997ZM134.151 0.199997H147.527C149.767 0.199997 151.623 2.056 151.623 4.296V40.968C151.623 43.208 149.767 45.064 147.527 45.064H134.151C131.911 45.064 130.055 43.208 130.055 40.968V4.296C130.055 2.056 131.911 0.199997 134.151 0.199997ZM142.663 37.704C143.559 37.704 144.327 37 144.327 36.104V9.16C144.327 8.264 143.559 7.56 142.663 7.56H139.015C138.119 7.56 137.351 8.264 137.351 9.16V36.104C137.351 37 138.119 37.704 139.015 37.704H142.663ZM177.103 4.232V41.032C177.103 41.672 177.295 42.248 177.615 42.824L178.895 45H168.015L168.271 44.552C168.783 43.72 168.911 42.696 168.591 41.736L162.831 23.24V41.032C162.831 41.672 163.023 42.248 163.343 42.824L164.623 45.064H153.743L155.087 42.824C155.407 42.248 155.535 41.672 155.535 41.032V4.232C155.535 3.592 155.407 3.016 155.087 2.44L153.743 0.263996H164.623L164.367 0.775997C163.855 1.608 163.727 2.632 163.983 3.592L169.807 22.152V4.232C169.807 3.592 169.615 3.016 169.295 2.44L168.015 0.199997H178.895L177.615 2.44C177.295 3.016 177.103 3.592 177.103 4.232ZM215.643 4.36V40.904C215.643 41.608 215.835 42.312 216.219 42.952L217.435 45H206.555L207.835 42.952C208.155 42.312 208.347 41.608 208.347 40.904V4.36C208.347 3.656 208.155 2.952 207.835 2.312L206.555 0.263996H217.435L216.219 2.312C215.835 2.952 215.643 3.656 215.643 4.36ZM219.618 0.199997H241.186V9.352L239.01 8.072C238.434 7.688 237.794 7.56 237.154 7.56H234.018V40.968C234.018 41.672 234.21 42.312 234.53 42.824L235.874 45H224.93L226.21 42.824C226.594 42.312 226.722 41.672 226.722 40.968V7.56H223.65C223.01 7.56 222.37 7.688 221.794 8.072L219.618 9.352V0.199997Z"/>
</mask>
<path d="M16.8068 0.199997V0.263996H20.5188C22.5028 0.263996 24.1028 1.8 24.1028 3.784V41.48C24.1028 43.464 22.5028 45 20.5188 45H0.74275L2.02275 42.824C2.40675 42.312 2.53475 41.672 2.53475 41.032V4.232C2.53475 3.592 2.40675 2.952 2.02275 2.44L0.74275 0.199997H16.8068ZM15.1428 37.704C16.0388 37.704 16.8068 37 16.8068 36.04V9.224C16.8068 8.264 16.0388 7.56 15.1428 7.56H9.83075V37.704H15.1428ZM181.055 0.199997H204.415V9.352L202.303 8.072C201.727 7.752 201.023 7.56 200.255 7.56H190.143V16.264H196.607C197.375 16.264 198.079 16.072 198.655 15.688L200.767 14.472V25.352L198.655 24.136C198.079 23.752 197.375 23.56 196.607 23.56H190.143V40.904C190.143 41.608 190.335 42.312 190.719 42.952L191.935 45.064H181.055L182.271 42.952C182.655 42.312 182.847 41.608 182.847 40.904V4.36C182.847 3.656 182.655 2.952 182.271 2.312L181.055 0.199997Z" fill="#D8483F"/>
<path d="M49.6028 0.199997V0.263996H51.3948L50.1148 2.376C49.7948 2.952 49.6028 3.656 49.6028 4.36V41.416C49.6028 43.4 48.0028 45 46.0188 45H31.6828C29.6348 45 28.0348 43.4 28.0348 41.416V4.36C28.0348 3.656 27.8428 2.952 27.5228 2.376L26.2428 0.263996H37.1228L35.9068 2.376C35.5228 2.952 35.3308 3.656 35.3308 4.36V36.04C35.3308 37 36.0988 37.704 37.0588 37.704H40.6428C41.5388 37.704 42.3068 37 42.3068 36.04V4.36C42.3068 3.656 42.1147 2.952 41.7308 2.376L40.5148 0.199997H49.6028ZM76.9153 4.232V41.032C76.9153 41.672 77.1073 42.248 77.4273 42.824L78.7073 45H67.8273L68.0833 44.552C68.5953 43.72 68.7233 42.696 68.4033 41.736L62.6433 23.24V41.032C62.6433 41.672 62.8353 42.248 63.1553 42.824L64.4353 45.064H53.5553L54.8993 42.824C55.2193 42.248 55.3473 41.672 55.3473 41.032V4.232C55.3473 3.592 55.2193 3.016 54.8993 2.44L53.5553 0.263996H64.4353L64.1793 0.775997C63.6673 1.608 63.5393 2.632 63.7953 3.592L69.6193 22.152V4.232C69.6193 3.592 69.4272 3.016 69.1073 2.44L67.8273 0.199997H78.7073L77.4273 2.44C77.1073 3.016 76.9153 3.592 76.9153 4.232ZM100.516 16.392L95.1398 19.464V7.56H88.1638V37.704H95.1398V33.864V29.576L90.7878 27.016L102.436 20.296V53.576L95.1398 49.416V45.064H84.4518C82.4678 45.064 80.8678 43.464 80.8678 41.48V3.784C80.8678 1.8 82.4678 0.199997 84.4518 0.199997H98.8518C100.836 0.199997 102.436 1.8 102.436 3.784V13.064C102.436 14.408 101.732 15.688 100.516 16.392ZM104.555 0.199997H127.915V9.352L125.675 8.008C125.163 7.688 124.523 7.56 123.947 7.56H113.643V16.264H120.299C120.875 16.264 121.515 16.072 122.027 15.752L124.267 14.472V25.352L122.027 24.072C121.515 23.752 120.875 23.56 120.299 23.56H113.643V37.704H123.947C124.523 37.704 125.163 37.576 125.675 37.256L127.915 35.912V45H104.555L105.899 42.824C106.219 42.248 106.347 41.672 106.347 41.032V4.232C106.347 3.592 106.219 3.016 105.899 2.44L104.555 0.199997ZM134.151 0.199997H147.527C149.767 0.199997 151.623 2.056 151.623 4.296V40.968C151.623 43.208 149.767 45.064 147.527 45.064H134.151C131.911 45.064 130.055 43.208 130.055 40.968V4.296C130.055 2.056 131.911 0.199997 134.151 0.199997ZM142.663 37.704C143.559 37.704 144.327 37 144.327 36.104V9.16C144.327 8.264 143.559 7.56 142.663 7.56H139.015C138.119 7.56 137.351 8.264 137.351 9.16V36.104C137.351 37 138.119 37.704 139.015 37.704H142.663ZM177.103 4.232V41.032C177.103 41.672 177.295 42.248 177.615 42.824L178.895 45H168.015L168.271 44.552C168.783 43.72 168.911 42.696 168.591 41.736L162.831 23.24V41.032C162.831 41.672 163.023 42.248 163.343 42.824L164.623 45.064H153.743L155.087 42.824C155.407 42.248 155.535 41.672 155.535 41.032V4.232C155.535 3.592 155.407 3.016 155.087 2.44L153.743 0.263996H164.623L164.367 0.775997C163.855 1.608 163.727 2.632 163.983 3.592L169.807 22.152V4.232C169.807 3.592 169.615 3.016 169.295 2.44L168.015 0.199997H178.895L177.615 2.44C177.295 3.016 177.103 3.592 177.103 4.232ZM215.643 4.36V40.904C215.643 41.608 215.835 42.312 216.219 42.952L217.435 45H206.555L207.835 42.952C208.155 42.312 208.347 41.608 208.347 40.904V4.36C208.347 3.656 208.155 2.952 207.835 2.312L206.555 0.263996H217.435L216.219 2.312C215.835 2.952 215.643 3.656 215.643 4.36ZM219.618 0.199997H241.186V9.352L239.01 8.072C238.434 7.688 237.794 7.56 237.154 7.56H234.018V40.968C234.018 41.672 234.21 42.312 234.53 42.824L235.874 45H224.93L226.21 42.824C226.594 42.312 226.722 41.672 226.722 40.968V7.56H223.65C223.01 7.56 222.37 7.688 221.794 8.072L219.618 9.352V0.199997Z" fill="#FF7727"/>
<path d="M16.8068 0.199997H17.8068V-0.800003H16.8068V0.199997ZM16.8068 0.263996H15.8068V1.264H16.8068V0.263996ZM0.74275 45L-0.119184 44.493L-1.00567 46H0.74275V45ZM2.02275 42.824L1.22275 42.224L1.18918 42.2688L1.16082 42.317L2.02275 42.824ZM2.02275 2.44L1.15451 2.93614L1.1854 2.99019L1.22275 3.04L2.02275 2.44ZM0.74275 0.199997V-0.800003H-0.980429L-0.125493 0.696136L0.74275 0.199997ZM9.83075 7.56V6.56H8.83075V7.56H9.83075ZM9.83075 37.704H8.83075V38.704H9.83075V37.704ZM15.8068 0.199997V0.263996H17.8068V0.199997H15.8068ZM16.8068 1.264H20.5188V-0.736004H16.8068V1.264ZM20.5188 1.264C21.9742 1.264 23.1028 2.3757 23.1028 3.784H25.1028C25.1028 1.22429 23.0313 -0.736004 20.5188 -0.736004V1.264ZM23.1028 3.784V41.48H25.1028V3.784H23.1028ZM23.1028 41.48C23.1028 42.8883 21.9742 44 20.5188 44V46C23.0313 46 25.1028 44.0397 25.1028 41.48H23.1028ZM20.5188 44H0.74275V46H20.5188V44ZM1.60468 45.507L2.88468 43.331L1.16082 42.317L-0.119184 44.493L1.60468 45.507ZM2.82275 43.424C3.38562 42.6735 3.53475 41.7891 3.53475 41.032H1.53475C1.53475 41.5549 1.42788 41.9505 1.22275 42.224L2.82275 43.424ZM3.53475 41.032V4.232H1.53475V41.032H3.53475ZM3.53475 4.232C3.53475 3.47486 3.38562 2.59049 2.82275 1.84L1.22275 3.04C1.42789 3.31351 1.53475 3.70914 1.53475 4.232H3.53475ZM2.89099 1.94386L1.61099 -0.296142L-0.125493 0.696136L1.15451 2.93614L2.89099 1.94386ZM0.74275 1.2H16.8068V-0.800003H0.74275V1.2ZM15.1428 38.704C16.5657 38.704 17.8068 37.5773 17.8068 36.04H15.8068C15.8068 36.4227 15.5118 36.704 15.1428 36.704V38.704ZM17.8068 36.04V9.224H15.8068V36.04H17.8068ZM17.8068 9.224C17.8068 7.68674 16.5657 6.56 15.1428 6.56V8.56C15.5118 8.56 15.8068 8.84125 15.8068 9.224H17.8068ZM15.1428 6.56H9.83075V8.56H15.1428V6.56ZM8.83075 7.56V37.704H10.8308V7.56H8.83075ZM9.83075 38.704H15.1428V36.704H9.83075V38.704ZM49.6028 0.199997H50.6028V-0.800003H49.6028V0.199997ZM49.6028 0.263996H48.6028V1.264H49.6028V0.263996ZM51.3948 0.263996L52.2499 0.782297L53.1701 -0.736004H51.3948V0.263996ZM50.1148 2.376L49.2596 1.8577L49.2498 1.87385L49.2406 1.89035L50.1148 2.376ZM27.5228 2.376L28.3969 1.89036L28.3877 1.87385L28.3779 1.8577L27.5228 2.376ZM26.2428 0.263996V-0.736004H24.4674L25.3876 0.782297L26.2428 0.263996ZM37.1228 0.263996L37.9894 0.76296L38.8524 -0.736004H37.1228V0.263996ZM35.9068 2.376L36.7388 2.9307L36.757 2.9034L36.7734 2.87496L35.9068 2.376ZM41.7308 2.376L40.8578 2.86382L40.8769 2.89806L40.8987 2.9307L41.7308 2.376ZM40.5148 0.199997V-0.800003H38.8104L39.6418 0.687818L40.5148 0.199997ZM48.6028 0.199997V0.263996H50.6028V0.199997H48.6028ZM49.6028 1.264H51.3948V-0.736004H49.6028V1.264ZM50.5396 -0.254305L49.2596 1.8577L50.97 2.8943L52.2499 0.782297L50.5396 -0.254305ZM49.2406 1.89035C48.8398 2.61177 48.6028 3.48249 48.6028 4.36H50.6028C50.6028 3.82951 50.7497 3.29223 50.9889 2.86164L49.2406 1.89035ZM48.6028 4.36V41.416H50.6028V4.36H48.6028ZM48.6028 41.416C48.6028 42.8477 47.4505 44 46.0188 44V46C48.555 46 50.6028 43.9523 50.6028 41.416H48.6028ZM46.0188 44H31.6828V46H46.0188V44ZM31.6828 44C30.1754 44 29.0348 42.8362 29.0348 41.416H27.0348C27.0348 43.9638 29.0941 46 31.6828 46V44ZM29.0348 41.416V4.36H27.0348V41.416H29.0348ZM29.0348 4.36C29.0348 3.48249 28.7977 2.61177 28.3969 1.89036L26.6486 2.86164C26.8878 3.29223 27.0348 3.82951 27.0348 4.36H29.0348ZM28.3779 1.8577L27.0979 -0.254305L25.3876 0.782297L26.6676 2.8943L28.3779 1.8577ZM26.2428 1.264H37.1228V-0.736004H26.2428V1.264ZM36.2561 -0.234968L35.0401 1.87704L36.7734 2.87496L37.9894 0.76296L36.2561 -0.234968ZM35.0747 1.8213C34.5694 2.57929 34.3308 3.48101 34.3308 4.36H36.3308C36.3308 3.83098 36.4761 3.32471 36.7388 2.9307L35.0747 1.8213ZM34.3308 4.36V36.04H36.3308V4.36H34.3308ZM34.3308 36.04C34.3308 37.6012 35.5967 38.704 37.0588 38.704V36.704C36.6008 36.704 36.3308 36.3988 36.3308 36.04H34.3308ZM37.0588 38.704H40.6428V36.704H37.0588V38.704ZM40.6428 38.704C42.0657 38.704 43.3068 37.5773 43.3068 36.04H41.3068C41.3068 36.4227 41.0118 36.704 40.6428 36.704V38.704ZM43.3068 36.04V4.36H41.3068V36.04H43.3068ZM43.3068 4.36C43.3068 3.48101 43.0681 2.57929 42.5628 1.8213L40.8987 2.9307C41.1614 3.32471 41.3068 3.83098 41.3068 4.36H43.3068ZM42.6037 1.88818L41.3877 -0.287824L39.6418 0.687818L40.8578 2.86382L42.6037 1.88818ZM40.5148 1.2H49.6028V-0.800003H40.5148V1.2ZM77.4273 42.824L76.5531 43.3096L76.5591 43.3204L76.5653 43.331L77.4273 42.824ZM78.7073 45V46H80.4557L79.5692 44.493L78.7073 45ZM67.8273 45L66.959 44.5039L66.1041 46H67.8273V45ZM68.0833 44.552L67.2316 44.0279L67.2231 44.0417L67.215 44.0559L68.0833 44.552ZM68.4033 41.736L67.4485 42.0333L67.4514 42.0428L67.4546 42.0522L68.4033 41.736ZM62.6433 23.24L63.598 22.9427L61.6433 23.24H62.6433ZM63.1553 42.824L62.281 43.3097L62.287 43.3201L63.1553 42.824ZM64.4353 45.064V46.064H66.1584L65.3035 44.5679L64.4353 45.064ZM53.5553 45.064L52.6978 44.5495L51.7891 46.064H53.5553V45.064ZM54.8993 42.824L55.7567 43.3385L55.7653 43.3242L55.7734 43.3096L54.8993 42.824ZM54.8993 2.44L55.7734 1.95436L55.7622 1.93416L55.75 1.91451L54.8993 2.44ZM53.5553 0.263996V-0.736004H51.7622L52.7045 0.789489L53.5553 0.263996ZM64.4353 0.263996L65.3297 0.711208L66.0533 -0.736004H64.4353V0.263996ZM64.1793 0.775997L65.0309 1.30009L65.054 1.26259L65.0737 1.22321L64.1793 0.775997ZM63.7953 3.592L62.829 3.84966L62.8346 3.87066L62.8411 3.8914L63.7953 3.592ZM69.6193 22.152L68.6651 22.4514L70.6193 22.152H69.6193ZM69.1073 2.44L69.9815 1.95432L69.9755 1.94386L69.1073 2.44ZM67.8273 0.199997V-0.800003H66.1041L66.959 0.696136L67.8273 0.199997ZM78.7073 0.199997L79.5755 0.696135L80.4304 -0.800003H78.7073V0.199997ZM77.4273 2.44L76.5589 1.94382L76.5531 1.95435L77.4273 2.44ZM75.9153 4.232V41.032H77.9153V4.232H75.9153ZM75.9153 41.032C75.9153 41.8874 76.1759 42.6306 76.5531 43.3096L78.3014 42.3384C78.0386 41.8654 77.9153 41.4566 77.9153 41.032H75.9153ZM76.5653 43.331L77.8453 45.507L79.5692 44.493L78.2892 42.317L76.5653 43.331ZM78.7073 44H67.8273V46H78.7073V44ZM68.6955 45.4961L68.9515 45.0481L67.215 44.0559L66.959 44.5039L68.6955 45.4961ZM68.9349 45.0761C69.601 43.9936 69.766 42.6621 69.3519 41.4198L67.4546 42.0522C67.6805 42.7299 67.5895 43.4464 67.2316 44.0279L68.9349 45.0761ZM69.358 41.4387L63.598 22.9427L61.6885 23.5373L67.4485 42.0333L69.358 41.4387ZM61.6433 23.24V41.032H63.6433V23.24H61.6433ZM61.6433 41.032C61.6433 41.8874 61.9039 42.6306 62.2811 43.3096L64.0294 42.3384C63.7666 41.8654 63.6433 41.4566 63.6433 41.032H61.6433ZM62.287 43.3201L63.567 45.5601L65.3035 44.5679L64.0235 42.3279L62.287 43.3201ZM64.4353 44.064H53.5553V46.064H64.4353V44.064ZM54.4127 45.5785L55.7567 43.3385L54.0418 42.3095L52.6978 44.5495L54.4127 45.5785ZM55.7734 43.3096C56.1856 42.5676 56.3473 41.8208 56.3473 41.032H54.3473C54.3473 41.5232 54.2529 41.9284 54.0251 42.3384L55.7734 43.3096ZM56.3473 41.032V4.232H54.3473V41.032H56.3473ZM56.3473 4.232C56.3473 3.44322 56.1856 2.69638 55.7734 1.95436L54.0251 2.92564C54.2529 3.33561 54.3473 3.74077 54.3473 4.232H56.3473ZM55.75 1.91451L54.406 -0.261496L52.7045 0.789489L54.0485 2.96549L55.75 1.91451ZM53.5553 1.264H64.4353V-0.736004H53.5553V1.264ZM63.5408 -0.183216L63.2848 0.328785L65.0737 1.22321L65.3297 0.711208L63.5408 -0.183216ZM63.3276 0.2519C62.662 1.33351 62.5072 2.64286 62.829 3.84966L64.7615 3.33434C64.5713 2.62113 64.6725 1.88249 65.0309 1.30009L63.3276 0.2519ZM62.8411 3.8914L68.6651 22.4514L70.5734 21.8526L64.7494 3.2926L62.8411 3.8914ZM70.6193 22.152V4.232H68.6193V22.152H70.6193ZM70.6193 4.232C70.6193 3.3766 70.3586 2.63335 69.9814 1.95436L68.2331 2.92564C68.4959 3.39865 68.6193 3.80739 68.6193 4.232H70.6193ZM69.9755 1.94386L68.6955 -0.296142L66.959 0.696136L68.239 2.93614L69.9755 1.94386ZM67.8273 1.2H78.7073V-0.800003H67.8273V1.2ZM77.839 -0.296141L76.559 1.94386L78.2955 2.93614L79.5755 0.696135L77.839 -0.296141ZM76.5531 1.95435C76.1759 2.63335 75.9153 3.37661 75.9153 4.232H77.9153C77.9153 3.80739 78.0386 3.39864 78.3014 2.92564L76.5531 1.95435ZM100.516 16.392L101.012 17.2603L101.017 17.2574L100.516 16.392ZM95.1398 19.464H94.1398V21.1872L95.6359 20.3322L95.1398 19.464ZM95.1398 7.56H96.1398V6.56H95.1398V7.56ZM88.1638 7.56V6.56H87.1638V7.56H88.1638ZM88.1638 37.704H87.1638V38.704H88.1638V37.704ZM95.1398 37.704V38.704H96.1398V37.704H95.1398ZM95.1398 29.576H96.1398V29.0041L95.6468 28.7141L95.1398 29.576ZM90.7878 27.016L90.288 26.1498L88.8012 27.0076L90.2807 27.8779L90.7878 27.016ZM102.436 20.296H103.436V18.5646L101.936 19.4298L102.436 20.296ZM102.436 53.576L101.94 54.4447L103.436 55.2973V53.576H102.436ZM95.1398 49.416H94.1398V49.997L94.6444 50.2847L95.1398 49.416ZM95.1398 45.064H96.1398V44.064H95.1398V45.064ZM100.02 15.5238L94.6436 18.5958L95.6359 20.3322L101.012 17.2602L100.02 15.5238ZM96.1398 19.464V7.56H94.1398V19.464H96.1398ZM95.1398 6.56H88.1638V8.56H95.1398V6.56ZM87.1638 7.56V37.704H89.1638V7.56H87.1638ZM88.1638 38.704H95.1398V36.704H88.1638V38.704ZM96.1398 37.704V33.864H94.1398V37.704H96.1398ZM96.1398 33.864V29.576H94.1398V33.864H96.1398ZM95.6468 28.7141L91.2948 26.1541L90.2807 27.8779L94.6327 30.4379L95.6468 28.7141ZM91.2875 27.8822L102.935 21.1622L101.936 19.4298L90.288 26.1498L91.2875 27.8822ZM101.436 20.296V53.576H103.436V20.296H101.436ZM102.931 52.7073L95.6351 48.5473L94.6444 50.2847L101.94 54.4447L102.931 52.7073ZM96.1398 49.416V45.064H94.1398V49.416H96.1398ZM95.1398 44.064H84.4518V46.064H95.1398V44.064ZM84.4518 44.064C83.02 44.064 81.8678 42.9117 81.8678 41.48H79.8678C79.8678 44.0163 81.9155 46.064 84.4518 46.064V44.064ZM81.8678 41.48V3.784H79.8678V41.48H81.8678ZM81.8678 3.784C81.8678 2.35228 83.02 1.2 84.4518 1.2V-0.800003C81.9155 -0.800003 79.8678 1.24771 79.8678 3.784H81.8678ZM84.4518 1.2H98.8518V-0.800003H84.4518V1.2ZM98.8518 1.2C100.283 1.2 101.436 2.35228 101.436 3.784H103.436C103.436 1.24771 101.388 -0.800003 98.8518 -0.800003V1.2ZM101.436 3.784V13.064H103.436V3.784H101.436ZM101.436 13.064C101.436 14.0594 100.915 15.0055 100.015 15.5266L101.017 17.2574C102.549 16.3705 103.436 14.7566 103.436 13.064H101.436ZM104.555 0.199997V-0.800003H102.789L103.698 0.714492L104.555 0.199997ZM127.915 0.199997H128.915V-0.800003H127.915V0.199997ZM127.915 9.352L127.401 10.2095L128.915 11.1182V9.352H127.915ZM125.675 8.008L125.145 8.856L125.153 8.86082L125.161 8.86549L125.675 8.008ZM113.643 7.56V6.56H112.643V7.56H113.643ZM113.643 16.264H112.643V17.264H113.643V16.264ZM122.027 15.752L121.531 14.8838L121.514 14.8935L121.497 14.904L122.027 15.752ZM124.267 14.472H125.267V12.7488L123.771 13.6038L124.267 14.472ZM124.267 25.352L123.771 26.2202L125.267 27.0752V25.352H124.267ZM122.027 24.072L121.497 24.92L121.514 24.9305L121.531 24.9402L122.027 24.072ZM113.643 23.56V22.56H112.643V23.56H113.643ZM113.643 37.704H112.643V38.704H113.643V37.704ZM125.675 37.256L125.161 36.3985L125.153 36.4032L125.145 36.408L125.675 37.256ZM127.915 35.912H128.915V34.1458L127.401 35.0545L127.915 35.912ZM127.915 45V46H128.915V45H127.915ZM104.555 45L103.704 44.4745L102.762 46H104.555V45ZM105.899 42.824L106.75 43.3495L106.762 43.3298L106.773 43.3096L105.899 42.824ZM105.899 2.44L106.773 1.95436L106.765 1.93979L106.757 1.9255L105.899 2.44ZM104.555 1.2H127.915V-0.800003H104.555V1.2ZM126.915 0.199997V9.352H128.915V0.199997H126.915ZM128.43 8.4945L126.19 7.15051L125.161 8.86549L127.401 10.2095L128.43 8.4945ZM126.205 7.16C125.49 6.71289 124.65 6.56 123.947 6.56V8.56C124.396 8.56 124.837 8.66311 125.145 8.856L126.205 7.16ZM123.947 6.56H113.643V8.56H123.947V6.56ZM112.643 7.56V16.264H114.643V7.56H112.643ZM113.643 17.264H120.299V15.264H113.643V17.264ZM120.299 17.264C121.076 17.264 121.898 17.0121 122.557 16.6L121.497 14.904C121.133 15.1319 120.675 15.264 120.299 15.264V17.264ZM122.523 16.6202L124.763 15.3402L123.771 13.6038L121.531 14.8838L122.523 16.6202ZM123.267 14.472V25.352H125.267V14.472H123.267ZM124.763 24.4838L122.523 23.2038L121.531 24.9402L123.771 26.2202L124.763 24.4838ZM122.557 23.224C121.898 22.8119 121.076 22.56 120.299 22.56V24.56C120.675 24.56 121.133 24.6921 121.497 24.92L122.557 23.224ZM120.299 22.56H113.643V24.56H120.299V22.56ZM112.643 23.56V37.704H114.643V23.56H112.643ZM113.643 38.704H123.947V36.704H113.643V38.704ZM123.947 38.704C124.65 38.704 125.49 38.5511 126.205 38.104L125.145 36.408C124.837 36.6009 124.396 36.704 123.947 36.704V38.704ZM126.19 38.1135L128.43 36.7695L127.401 35.0545L125.161 36.3985L126.19 38.1135ZM126.915 35.912V45H128.915V35.912H126.915ZM127.915 44H104.555V46H127.915V44ZM105.406 45.5255L106.75 43.3495L105.048 42.2985L103.704 44.4745L105.406 45.5255ZM106.773 43.3096C107.186 42.5676 107.347 41.8208 107.347 41.032H105.347C105.347 41.5232 105.253 41.9284 105.025 42.3384L106.773 43.3096ZM107.347 41.032V4.232H105.347V41.032H107.347ZM107.347 4.232C107.347 3.44322 107.186 2.69638 106.773 1.95436L105.025 2.92564C105.253 3.33561 105.347 3.74077 105.347 4.232H107.347ZM106.757 1.9255L105.413 -0.314499L103.698 0.714492L105.042 2.95449L106.757 1.9255ZM134.151 1.2H147.527V-0.800003H134.151V1.2ZM147.527 1.2C149.215 1.2 150.623 2.60828 150.623 4.296H152.623C152.623 1.50372 150.32 -0.800003 147.527 -0.800003V1.2ZM150.623 4.296V40.968H152.623V4.296H150.623ZM150.623 40.968C150.623 42.6557 149.215 44.064 147.527 44.064V46.064C150.32 46.064 152.623 43.7603 152.623 40.968H150.623ZM147.527 44.064H134.151V46.064H147.527V44.064ZM134.151 44.064C132.464 44.064 131.055 42.6557 131.055 40.968H129.055C129.055 43.7603 131.359 46.064 134.151 46.064V44.064ZM131.055 40.968V4.296H129.055V40.968H131.055ZM131.055 4.296C131.055 2.60828 132.464 1.2 134.151 1.2V-0.800003C131.359 -0.800003 129.055 1.50372 129.055 4.296H131.055ZM142.663 38.704C144.06 38.704 145.327 37.6025 145.327 36.104H143.327C143.327 36.3975 143.059 36.704 142.663 36.704V38.704ZM145.327 36.104V9.16H143.327V36.104H145.327ZM145.327 9.16C145.327 7.66146 144.06 6.56 142.663 6.56V8.56C143.059 8.56 143.327 8.86654 143.327 9.16H145.327ZM142.663 6.56H139.015V8.56H142.663V6.56ZM139.015 6.56C137.619 6.56 136.351 7.66146 136.351 9.16H138.351C138.351 8.86654 138.62 8.56 139.015 8.56V6.56ZM136.351 9.16V36.104H138.351V9.16H136.351ZM136.351 36.104C136.351 37.6025 137.619 38.704 139.015 38.704V36.704C138.62 36.704 138.351 36.3975 138.351 36.104H136.351ZM139.015 38.704H142.663V36.704H139.015V38.704ZM177.615 42.824L176.741 43.3096L176.747 43.3204L176.753 43.331L177.615 42.824ZM178.895 45V46H180.643L179.757 44.493L178.895 45ZM168.015 45L167.147 44.5039L166.292 46H168.015V45ZM168.271 44.552L167.419 44.0279L167.411 44.0417L167.403 44.0559L168.271 44.552ZM168.591 41.736L167.636 42.0333L167.639 42.0428L167.642 42.0522L168.591 41.736ZM162.831 23.24L163.786 22.9427L161.831 23.24H162.831ZM163.343 42.824L162.469 43.3097L162.475 43.3201L163.343 42.824ZM164.623 45.064V46.064H166.346L165.491 44.5679L164.623 45.064ZM153.743 45.064L152.885 44.5495L151.977 46.064H153.743V45.064ZM155.087 42.824L155.944 43.3385L155.953 43.3242L155.961 43.3096L155.087 42.824ZM155.087 2.44L155.961 1.95436L155.95 1.93416L155.938 1.91451L155.087 2.44ZM153.743 0.263996V-0.736004H151.95L152.892 0.789489L153.743 0.263996ZM164.623 0.263996L165.517 0.711208L166.241 -0.736004H164.623V0.263996ZM164.367 0.775997L165.218 1.30009L165.241 1.26259L165.261 1.22321L164.367 0.775997ZM163.983 3.592L163.017 3.84966L163.022 3.87066L163.029 3.8914L163.983 3.592ZM169.807 22.152L168.853 22.4514L170.807 22.152H169.807ZM169.295 2.44L170.169 1.95432L170.163 1.94386L169.295 2.44ZM168.015 0.199997V-0.800003H166.292L167.147 0.696136L168.015 0.199997ZM178.895 0.199997L179.763 0.696135L180.618 -0.800003H178.895V0.199997ZM177.615 2.44L176.746 1.94382L176.741 1.95435L177.615 2.44ZM176.103 4.232V41.032H178.103V4.232H176.103ZM176.103 41.032C176.103 41.8874 176.363 42.6306 176.741 43.3096L178.489 42.3384C178.226 41.8654 178.103 41.4566 178.103 41.032H176.103ZM176.753 43.331L178.033 45.507L179.757 44.493L178.477 42.317L176.753 43.331ZM178.895 44H168.015V46H178.895V44ZM168.883 45.4961L169.139 45.0481L167.403 44.0559L167.147 44.5039L168.883 45.4961ZM169.122 45.0761C169.789 43.9936 169.954 42.6621 169.539 41.4198L167.642 42.0522C167.868 42.7299 167.777 43.4464 167.419 44.0279L169.122 45.0761ZM169.546 41.4387L163.786 22.9427L161.876 23.5373L167.636 42.0333L169.546 41.4387ZM161.831 23.24V41.032H163.831V23.24H161.831ZM161.831 41.032C161.831 41.8874 162.091 42.6306 162.469 43.3096L164.217 42.3384C163.954 41.8654 163.831 41.4566 163.831 41.032H161.831ZM162.475 43.3201L163.755 45.5601L165.491 44.5679L164.211 42.3279L162.475 43.3201ZM164.623 44.064H153.743V46.064H164.623V44.064ZM154.6 45.5785L155.944 43.3385L154.229 42.3095L152.885 44.5495L154.6 45.5785ZM155.961 43.3096C156.373 42.5676 156.535 41.8208 156.535 41.032H154.535C154.535 41.5232 154.44 41.9284 154.213 42.3384L155.961 43.3096ZM156.535 41.032V4.232H154.535V41.032H156.535ZM156.535 4.232C156.535 3.44322 156.373 2.69638 155.961 1.95436L154.213 2.92564C154.44 3.33561 154.535 3.74077 154.535 4.232H156.535ZM155.938 1.91451L154.594 -0.261496L152.892 0.789489L154.236 2.96549L155.938 1.91451ZM153.743 1.264H164.623V-0.736004H153.743V1.264ZM163.728 -0.183216L163.472 0.328785L165.261 1.22321L165.517 0.711208L163.728 -0.183216ZM163.515 0.2519C162.849 1.33351 162.695 2.64286 163.017 3.84966L164.949 3.33434C164.759 2.62113 164.86 1.88249 165.218 1.30009L163.515 0.2519ZM163.029 3.8914L168.853 22.4514L170.761 21.8526L164.937 3.2926L163.029 3.8914ZM170.807 22.152V4.232H168.807V22.152H170.807ZM170.807 4.232C170.807 3.3766 170.546 2.63335 170.169 1.95436L168.421 2.92564C168.683 3.39865 168.807 3.80739 168.807 4.232H170.807ZM170.163 1.94386L168.883 -0.296142L167.147 0.696136L168.427 2.93614L170.163 1.94386ZM168.015 1.2H178.895V-0.800003H168.015V1.2ZM178.027 -0.296141L176.747 1.94386L178.483 2.93614L179.763 0.696135L178.027 -0.296141ZM176.741 1.95435C176.363 2.63335 176.103 3.37661 176.103 4.232H178.103C178.103 3.80739 178.226 3.39864 178.489 2.92564L176.741 1.95435ZM181.055 0.199997V-0.800003H179.326L180.189 0.698961L181.055 0.199997ZM204.415 0.199997H205.415V-0.800003H204.415V0.199997ZM204.415 9.352L203.897 10.2072L205.415 11.1274V9.352H204.415ZM202.303 8.072L202.822 7.2168L202.805 7.20701L202.789 7.19784L202.303 8.072ZM190.143 7.56V6.56H189.143V7.56H190.143ZM190.143 16.264H189.143V17.264H190.143V16.264ZM198.655 15.688L198.156 14.8214L198.128 14.8377L198.101 14.8559L198.655 15.688ZM200.767 14.472H201.767V12.7423L200.268 13.6054L200.767 14.472ZM200.767 25.352L200.268 26.2186L201.767 27.0817V25.352H200.767ZM198.655 24.136L198.101 24.968L198.128 24.9863L198.156 25.0026L198.655 24.136ZM190.143 23.56V22.56H189.143V23.56H190.143ZM190.719 42.952L191.586 42.453L191.581 42.4452L191.577 42.4375L190.719 42.952ZM191.935 45.064V46.064H193.665L192.802 44.565L191.935 45.064ZM181.055 45.064L180.189 44.565L179.326 46.064H181.055V45.064ZM182.271 42.952L181.414 42.4375L181.409 42.4452L181.405 42.453L182.271 42.952ZM182.271 2.312L181.405 2.81096L181.409 2.81877L181.414 2.82649L182.271 2.312ZM181.055 1.2H204.415V-0.800003H181.055V1.2ZM203.415 0.199997V9.352H205.415V0.199997H203.415ZM204.934 8.4968L202.822 7.2168L201.785 8.9272L203.897 10.2072L204.934 8.4968ZM202.789 7.19784C202.061 6.79324 201.189 6.56 200.255 6.56V8.56C200.858 8.56 201.394 8.71075 201.818 8.94616L202.789 7.19784ZM200.255 6.56H190.143V8.56H200.255V6.56ZM189.143 7.56V16.264H191.143V7.56H189.143ZM190.143 17.264H196.607V15.264H190.143V17.264ZM196.607 17.264C197.541 17.264 198.445 17.0298 199.21 16.52L198.101 14.8559C197.713 15.1142 197.209 15.264 196.607 15.264V17.264ZM199.154 16.5546L201.266 15.3386L200.268 13.6054L198.156 14.8214L199.154 16.5546ZM199.767 14.472V25.352H201.767V14.472H199.767ZM201.266 24.4854L199.154 23.2694L198.156 25.0026L200.268 26.2186L201.266 24.4854ZM199.21 23.3039C198.445 22.7942 197.541 22.56 196.607 22.56V24.56C197.209 24.56 197.713 24.7098 198.101 24.968L199.21 23.3039ZM196.607 22.56H190.143V24.56H196.607V22.56ZM189.143 23.56V40.904H191.143V23.56H189.143ZM189.143 40.904C189.143 41.7919 189.386 42.6734 189.862 43.4665L191.577 42.4375C191.285 41.9506 191.143 41.4241 191.143 40.904H189.143ZM189.853 43.451L191.069 45.563L192.802 44.565L191.586 42.453L189.853 43.451ZM191.935 44.064H181.055V46.064H191.935V44.064ZM181.922 45.563L183.138 43.451L181.405 42.453L180.189 44.565L181.922 45.563ZM183.129 43.4665C183.605 42.6734 183.847 41.7919 183.847 40.904H181.847C181.847 41.4241 181.706 41.9506 181.414 42.4375L183.129 43.4665ZM183.847 40.904V4.36H181.847V40.904H183.847ZM183.847 4.36C183.847 3.47208 183.605 2.59061 183.129 1.7975L181.414 2.82649C181.706 3.31339 181.847 3.83991 181.847 4.36H183.847ZM183.138 1.81303L181.922 -0.298968L180.189 0.698961L181.405 2.81096L183.138 1.81303ZM216.219 42.952L217.079 42.4415L217.077 42.4375L216.219 42.952ZM217.435 45V46H219.192L218.295 44.4895L217.435 45ZM206.555 45L205.707 44.47L204.751 46H206.555V45ZM207.835 42.952L208.683 43.482L208.708 43.4417L208.73 43.3992L207.835 42.952ZM207.835 2.312L208.73 1.86478L208.708 1.82229L208.683 1.782L207.835 2.312ZM206.555 0.263996V-0.736004H204.751L205.707 0.793995L206.555 0.263996ZM217.435 0.263996L218.295 0.774535L219.192 -0.736004H217.435V0.263996ZM216.219 2.312L217.077 2.8265L217.079 2.82254L216.219 2.312ZM214.643 4.36V40.904H216.643V4.36H214.643ZM214.643 40.904C214.643 41.7919 214.886 42.6734 215.362 43.4665L217.077 42.4375C216.785 41.9506 216.643 41.4241 216.643 40.904H214.643ZM215.359 43.4625L216.575 45.5105L218.295 44.4895L217.079 42.4415L215.359 43.4625ZM217.435 44H206.555V46H217.435V44ZM207.403 45.53L208.683 43.482L206.987 42.422L205.707 44.47L207.403 45.53ZM208.73 43.3992C209.107 42.6441 209.347 41.7877 209.347 40.904H207.347C207.347 41.4283 207.203 41.9799 206.941 42.5048L208.73 43.3992ZM209.347 40.904V4.36H207.347V40.904H209.347ZM209.347 4.36C209.347 3.47625 209.107 2.61993 208.73 1.86478L206.941 2.75921C207.203 3.28407 207.347 3.83574 207.347 4.36H209.347ZM208.683 1.782L207.403 -0.266003L205.707 0.793995L206.987 2.842L208.683 1.782ZM206.555 1.264H217.435V-0.736004H206.555V1.264ZM216.575 -0.246542L215.359 1.80146L217.079 2.82254L218.295 0.774535L216.575 -0.246542ZM215.362 1.7975C214.886 2.59061 214.643 3.47208 214.643 4.36H216.643C216.643 3.83991 216.785 3.31339 217.077 2.82649L215.362 1.7975ZM219.618 0.199997V-0.800003H218.618V0.199997H219.618ZM241.186 0.199997H242.186V-0.800003H241.186V0.199997ZM241.186 9.352L240.679 10.2139L242.186 11.1004V9.352H241.186ZM239.01 8.072L238.455 8.90405L238.478 8.91966L238.503 8.93393L239.01 8.072ZM234.018 7.56V6.56H233.018V7.56H234.018ZM234.53 42.824L235.381 42.2985L235.378 42.294L234.53 42.824ZM235.874 45V46H237.667L236.725 44.4745L235.874 45ZM224.93 45L224.068 44.493L223.181 46H224.93V45ZM226.21 42.824L225.41 42.224L225.376 42.2688L225.348 42.317L226.21 42.824ZM226.722 7.56H227.722V6.56H226.722V7.56ZM221.794 8.072L222.301 8.93393L222.325 8.91966L222.348 8.90405L221.794 8.072ZM219.618 9.352H218.618V11.1004L220.125 10.2139L219.618 9.352ZM219.618 1.2H241.186V-0.800003H219.618V1.2ZM240.186 0.199997V9.352H242.186V0.199997H240.186ZM241.693 8.49006L239.517 7.21006L238.503 8.93393L240.679 10.2139L241.693 8.49006ZM239.564 7.23995C238.778 6.71558 237.927 6.56 237.154 6.56V8.56C237.66 8.56 238.09 8.66042 238.455 8.90405L239.564 7.23995ZM237.154 6.56H234.018V8.56H237.154V6.56ZM233.018 7.56V40.968H235.018V7.56H233.018ZM233.018 40.968C233.018 41.8533 233.259 42.6779 233.682 43.354L235.378 42.294C235.16 41.9461 235.018 41.4907 235.018 40.968H233.018ZM233.679 43.3495L235.023 45.5255L236.725 44.4745L235.381 42.2985L233.679 43.3495ZM235.874 44H224.93V46H235.874V44ZM225.792 45.507L227.072 43.331L225.348 42.317L224.068 44.493L225.792 45.507ZM227.01 43.424C227.577 42.6679 227.722 41.7785 227.722 40.968H225.722C225.722 41.5655 225.611 41.9561 225.41 42.224L227.01 43.424ZM227.722 40.968V7.56H225.722V40.968H227.722ZM226.722 6.56H223.65V8.56H226.722V6.56ZM223.65 6.56C222.876 6.56 222.026 6.71558 221.239 7.23995L222.348 8.90405C222.714 8.66042 223.143 8.56 223.65 8.56V6.56ZM221.287 7.21006L219.111 8.49006L220.125 10.2139L222.301 8.93393L221.287 7.21006ZM220.618 9.352V0.199997H218.618V9.352H220.618Z" fill="black" mask="url(#path-1-outside-1_76_438)"/>
</svg>
