<svg width="243" height="127" viewBox="0 0 243 127" fill="none" xmlns="http://www.w3.org/2000/svg">
<path d="M0 10.9232C0 10.6471 0.223858 10.4232 0.5 10.4232H109.367C109.643 10.4232 109.867 10.1994 109.867 9.92322V0.5C109.867 0.223858 110.091 0 110.367 0H121.5H133.602C133.879 0 134.102 0.223858 134.102 0.5V9.92322C134.102 10.1994 134.326 10.4232 134.602 10.4232H242.5C242.776 10.4232 243 10.6471 243 10.9232V18.9007C243 18.9343 242.997 18.9679 242.99 19.0009L240.092 33.1648L239.467 19.4286C239.455 19.1616 239.235 18.9513 238.968 18.9513H129.028C128.752 18.9513 128.528 18.7275 128.528 18.4513V9.02809C128.528 8.75195 128.304 8.52809 128.028 8.52809H122.469H114.568C114.292 8.52809 114.068 8.75195 114.068 9.02809V18.4513C114.068 18.7275 113.844 18.9513 113.568 18.9513H109.867H4.04364C3.77178 18.9513 3.54974 19.1685 3.54376 19.4403L3.23138 33.6386L0.011679 19.0044C0.00391585 18.9691 0 18.9331 0 18.897V10.9232Z" fill="url(#paint0_linear_76_447)"/>
<path d="M37.1609 83.3861L76.5838 81.491H114.391V88.1239L113.745 123.658L109.867 88.1239L60.75 86.2288L37.1609 83.3861Z" fill="url(#paint1_linear_76_447)"/>
<path d="M206.162 83.3861L166.739 81.491H128.932V88.1239L129.579 123.658L133.456 88.1239L182.573 86.2288L206.162 83.3861Z" fill="url(#paint2_linear_76_447)"/>
<g style="mix-blend-mode:multiply">
<path d="M206.162 83.3857L166.739 84.3333H128.932V90.9663L129.579 126.5L133.456 90.9663L182.573 89.0711L206.162 83.3857Z" fill="url(#paint3_linear_76_447)" fill-opacity="0.86"/>
</g>
<g style="mix-blend-mode:multiply">
<path d="M0 14.7135C0 14.4374 0.223858 14.2135 0.5 14.2135H109.367C109.643 14.2135 109.867 13.9896 109.867 13.7135V4.29028C109.867 4.01414 110.091 3.79028 110.367 3.79028H121.5H133.602C133.879 3.79028 134.102 4.01414 134.102 4.29028V13.7135C134.102 13.9896 134.326 14.2135 134.602 14.2135H242.5C242.776 14.2135 243 14.4374 243 14.7135V22.691C243 22.7246 242.997 22.7582 242.99 22.7912L240.092 36.9551L239.467 23.2189C239.455 22.9518 239.235 22.7416 238.968 22.7416H129.028C128.752 22.7416 128.528 22.5177 128.528 22.2416V12.8184C128.528 12.5422 128.304 12.3184 128.028 12.3184H122.469H114.568C114.292 12.3184 114.068 12.5422 114.068 12.8184V22.2416C114.068 22.5177 113.844 22.7416 113.568 22.7416H109.867H4.04364C3.77178 22.7416 3.54974 22.9588 3.54376 23.2306L3.23138 37.4289L0.011679 22.7947C0.00391585 22.7594 0 22.7234 0 22.6872V14.7135Z" fill="url(#paint4_linear_76_447)" fill-opacity="0.86"/>
</g>
<g style="mix-blend-mode:multiply">
<path d="M37.484 83.3857L76.5837 84.3333H114.391V90.9663L113.745 126.5L109.867 90.9663L60.75 89.0711L37.484 83.3857Z" fill="url(#paint5_linear_76_447)" fill-opacity="0.86"/>
</g>
<defs>
<linearGradient id="paint0_linear_76_447" x1="121.5" y1="2.36891" x2="121.5" y2="18.9513" gradientUnits="userSpaceOnUse">
<stop stop-color="#F2D28E"/>
<stop offset="1" stop-color="#D27F47"/>
</linearGradient>
<linearGradient id="paint1_linear_76_447" x1="75.7759" y1="84.4605" x2="75.7759" y2="105.247" gradientUnits="userSpaceOnUse">
<stop stop-color="#F2D28E"/>
<stop offset="1" stop-color="#D27F47"/>
</linearGradient>
<linearGradient id="paint2_linear_76_447" x1="167.547" y1="84.4605" x2="167.547" y2="105.247" gradientUnits="userSpaceOnUse">
<stop stop-color="#F2D28E"/>
<stop offset="1" stop-color="#D27F47"/>
</linearGradient>
<linearGradient id="paint3_linear_76_447" x1="167.547" y1="86.422" x2="167.547" y2="107.675" gradientUnits="userSpaceOnUse">
<stop stop-color="#FE9F29"/>
<stop offset="0.770833" stop-color="#1C1104"/>
<stop offset="1"/>
</linearGradient>
<linearGradient id="paint4_linear_76_447" x1="121.5" y1="6.1592" x2="121.5" y2="22.7416" gradientUnits="userSpaceOnUse">
<stop stop-color="#FE9F29"/>
<stop offset="0.770833" stop-color="#1C1104"/>
<stop offset="1"/>
</linearGradient>
<linearGradient id="paint5_linear_76_447" x1="75.9375" y1="86.422" x2="75.9374" y2="107.675" gradientUnits="userSpaceOnUse">
<stop stop-color="#FE9F29"/>
<stop offset="0.770833" stop-color="#1C1104"/>
<stop offset="1"/>
</linearGradient>
</defs>
</svg>
