<svg width="40" height="40" viewBox="0 0 40 40" fill="none" xmlns="http://www.w3.org/2000/svg">
<g clip-path="url(#clip0_451_645)">
<path d="M19.9969 39.9802C30.9616 39.9802 40 30.9312 40 19.9901C40 9.03524 30.9479 0 19.9832 0C9.03833 0 0 9.03524 0 19.9901C0 30.9312 9.05209 39.9802 19.9969 39.9802ZM23.8211 29.7819C23.4076 30.1875 22.6242 30.1662 22.1649 29.7407L13.5493 21.4813C12.6601 20.6674 12.6539 19.3094 13.5493 18.4892L22.1649 10.2299C22.6594 9.76313 23.3603 9.76792 23.8072 10.1887C24.2831 10.6307 24.297 11.4111 23.8286 11.8517L15.3188 19.9715L23.8286 28.1187C24.2831 28.5596 24.2909 29.3001 23.8211 29.7819Z" fill="white" fill-opacity="0.85"/>
</g>
<defs>
<clipPath id="clip0_451_645">
<rect width="40" height="40" fill="white"/>
</clipPath>
</defs>
</svg>
